<?xml version="1.0" standalone="no"?>
<!DOCTYPE svg PUBLIC "-//W3C//DTD SVG 20010904//EN"
 "http://www.w3.org/TR/2001/REC-SVG-20010904/DTD/svg10.dtd">
<svg version="1.0" xmlns="http://www.w3.org/2000/svg"
 width="401.000000pt" height="400.000000pt" viewBox="0 0 401.000000 400.000000"
 preserveAspectRatio="xMidYMid meet">

<g transform="translate(0.000000,400.000000) scale(0.100000,-0.100000)"
fill="#000000" stroke="none">
<path d="M1857 3579 c-262 -23 -523 -117 -750 -271 -131 -89 -325 -285 -413
-418 -315 -475 -357 -1052 -114 -1563 143 -302 434 -593 733 -735 440 -209
935 -210 1374 -1 298 142 590 435 733 736 242 508 200 1091 -112 1560 -91 137
-283 332 -415 421 -233 158 -483 247 -765 272 -124 11 -143 11 -271 -1z m375
-205 c277 -45 536 -181 743 -388 210 -211 341 -459 390 -742 22 -128 20 -367
-5 -490 -38 -191 -115 -375 -223 -533 -66 -97 -250 -281 -349 -349 -159 -109
-367 -194 -555 -227 -115 -21 -351 -21 -466 0 -425 75 -793 344 -991 725 -110
212 -156 400 -155 634 0 165 8 241 38 351 66 247 182 446 366 631 322 323 756
462 1207 388z"/>
<path d="M2725 2533 c-11 -3 -41 -14 -67 -25 l-48 -20 0 -72 0 -72 86 43 c111
56 170 59 216 13 25 -26 29 -36 24 -62 -9 -44 -25 -59 -130 -124 -54 -33 -114
-81 -148 -117 l-58 -62 0 -107 0 -108 235 0 235 0 0 65 0 65 -170 0 c-93 0
-170 2 -170 5 0 12 109 135 121 135 17 0 157 100 186 134 54 60 58 167 10 230
-43 56 -107 81 -212 83 -49 1 -99 -1 -110 -4z"/>
<path d="M1777 2462 l-89 -67 -1 -82 -2 -82 35 27 c19 14 56 43 81 64 26 21
50 38 53 38 3 0 6 -117 6 -260 l0 -260 75 0 75 0 0 345 0 345 -72 0 -73 0 -88
-68z"/>
<path d="M2253 2463 l-92 -68 -1 -84 0 -83 45 36 c25 20 65 52 90 72 l45 36 0
-271 0 -272 68 3 67 3 0 345 0 345 -65 3 -65 3 -92 -68z"/>
<path d="M1097 2369 l-37 -20 121 -179 c84 -125 127 -180 140 -180 25 0 69 67
69 105 0 34 -46 117 -123 220 -48 65 -55 70 -92 72 -25 2 -54 -5 -78 -18z"/>
<path d="M976 2300 c-54 -48 -76 -103 -76 -191 0 -93 15 -150 73 -269 178
-370 504 -720 761 -815 41 -16 57 -17 111 -8 65 11 188 60 183 73 -2 4 -74 81
-161 170 -151 155 -159 162 -183 151 -69 -31 -138 0 -251 115 -115 115 -223
286 -223 351 0 8 16 31 35 50 20 20 32 40 28 46 -25 42 -187 289 -210 320 -15
20 -33 37 -40 37 -7 0 -28 -14 -47 -30z"/>
<path d="M1785 1492 c-63 -39 -65 -34 109 -216 l162 -169 24 33 c13 18 25 52
28 79 4 44 2 49 -53 111 -31 36 -85 91 -119 122 -68 64 -99 72 -151 40z"/>
</g>
</svg>
