<?xml version="1.0" standalone="no"?>
<!DOCTYPE svg PUBLIC "-//W3C//DTD SVG 20010904//EN"
 "http://www.w3.org/TR/2001/REC-SVG-20010904/DTD/svg10.dtd">
<svg version="1.0" xmlns="http://www.w3.org/2000/svg"
 width="600.000000pt" height="620.000000pt" viewBox="0 0 600.000000 620.000000"
 preserveAspectRatio="xMidYMid meet">

<g transform="translate(0.000000,620.000000) scale(0.100000,-0.100000)"
fill="#000000" stroke="none">
<path d="M2919 4789 c-46 -17 -45 -80 1 -97 10 -4 141 -5 290 -2 226 4 272 7
280 20 15 24 12 48 -10 70 -19 19 -33 20 -277 19 -142 0 -270 -5 -284 -10z"/>
<path d="M2769 4616 c-58 -20 -107 -64 -134 -119 l-25 -52 -1 -857 -1 -858 26
-54 c28 -58 77 -101 135 -122 24 -9 97 -13 223 -14 l187 0 3 -317 c4 -371 8
-388 103 -491 64 -70 138 -109 231 -124 101 -15 445 -5 509 16 100 32 205 137
240 240 13 36 19 96 23 204 l4 152 90 0 c60 0 99 5 118 15 63 33 60 -16 60
992 0 714 -3 923 -13 943 -7 13 -28 35 -46 47 -34 23 -37 23 -355 23 -301 0
-323 -1 -353 -20 -67 -40 -63 16 -63 -990 0 -1000 -3 -956 59 -993 23 -14 55
-17 160 -17 l131 0 0 -142 c0 -133 -1 -144 -25 -185 -16 -27 -41 -51 -66 -64
-38 -19 -55 -20 -268 -17 l-228 3 -35 27 c-70 53 -73 67 -76 401 l-3 297 116
0 115 0 0 806 c0 583 3 817 12 845 15 51 69 114 122 142 40 21 52 22 379 25
386 3 416 -1 481 -64 80 -78 76 -19 76 -931 0 -447 3 -813 8 -813 4 0 25 10
47 23 55 31 101 96 115 160 7 37 10 304 8 883 l-3 830 -26 49 c-28 56 -91 109
-147 125 -59 16 -1866 13 -1913 -4z m630 -271 c49 -25 52 -47 49 -354 l-3
-283 -28 -24 -28 -24 -269 0 -268 0 -26 31 -26 31 0 287 c0 308 2 320 54 341
11 5 133 9 269 9 198 1 254 -2 276 -14z m-421 -864 c9 -5 12 -25 10 -62 l-3
-54 -90 0 -90 0 -3 49 c-5 74 -3 76 85 76 43 0 84 -4 91 -9z m230 0 c9 -5 12
-25 10 -62 l-3 -54 -90 0 -90 0 -3 49 c-5 74 -3 76 85 76 43 0 84 -4 91 -9z
m231 -5 c7 -8 11 -36 9 -63 l-3 -48 -90 0 -90 0 -3 49 c-2 27 -1 55 2 62 8 20
159 20 175 0z m-449 -285 c0 -27 -6 -53 -12 -59 -16 -12 -148 -15 -166 -3 -9
5 -12 25 -10 57 l3 49 85 5 c47 3 88 4 93 2 4 -2 7 -25 7 -51z m228 -8 l-3
-58 -70 -3 c-109 -5 -115 -2 -115 63 l0 55 95 0 96 0 -3 -57z m226 41 c3 -9 6
-31 6 -49 0 -46 -23 -57 -113 -53 l-72 3 -3 44 c-5 69 -3 71 92 71 67 0 85 -3
90 -16z m-456 -285 l-3 -54 -90 0 -90 0 -3 57 -3 57 88 3 c48 2 92 0 96 -3 5
-3 7 -30 5 -60z m227 6 l0 -60 -90 0 -90 0 -3 57 -3 57 38 4 c21 2 63 4 93 3
l55 -1 0 -60z m231 31 c3 -13 4 -38 2 -57 l-3 -34 -90 0 -90 0 -3 58 -3 57 90
0 c87 0 91 -1 97 -24z"/>
</g>
</svg>
